<svg xmlns="http://www.w3.org/2000/svg" xmlns:xlink="http://www.w3.org/1999/xlink" width="500" zoomAndPan="magnify" viewBox="0 0 375 374.999991" height="500" preserveAspectRatio="xMidYMid meet" version="1.0"><rect x="-37.5" width="450" fill="#ffffff" y="-37.499999" height="449.999989" fill-opacity="1"/><rect x="-37.5" width="450" fill="#ffffff" y="-37.499999" height="449.999989" fill-opacity="1"/><path fill="#eeeeee" d="M 312.5 62.5 L 62.5 62.5 C 49.554688 62.5 39.0625 72.992188 39.0625 85.9375 L 39.0625 289.0625 C 39.0625 302.007812 49.554688 312.5 62.5 312.5 L 312.5 312.5 C 325.445312 312.5 335.9375 302.007812 335.9375 289.0625 L 335.9375 85.9375 C 335.9375 72.992188 325.445312 62.5 312.5 62.5 Z M 312.5 62.5 " fill-opacity="1" fill-rule="nonzero"/><path fill="#29b6f6" d="M 296.875 101.5625 L 78.125 101.5625 L 78.125 273.4375 L 296.875 273.4375 Z M 296.875 101.5625 " fill-opacity="1" fill-rule="nonzero"/><path fill="#4fc3f7" d="M 296.875 273.4375 L 296.875 141.640625 C 294.375 140.9375 291.796875 140.625 289.0625 140.625 C 285.9375 140.625 282.890625 141.25 280 142.109375 C 277.890625 140 275.546875 138.203125 272.890625 136.71875 C 268.4375 134.21875 263.28125 132.8125 257.8125 132.8125 C 252.265625 132.8125 247.109375 134.21875 242.65625 136.796875 C 237.890625 139.453125 233.90625 143.4375 231.09375 148.125 C 225.625 143.515625 218.671875 140.625 210.9375 140.625 C 207.03125 140.625 203.359375 141.40625 199.921875 142.734375 C 194.84375 132.265625 184.296875 125 171.875 125 C 160.46875 125 150.546875 131.171875 145.15625 140.3125 C 139.6875 135.703125 132.734375 132.8125 125 132.8125 C 119.609375 132.8125 114.609375 134.296875 110.15625 136.71875 C 104.453125 129.609375 95.78125 125 85.9375 125 C 83.203125 125 80.625 125.3125 78.125 126.015625 L 78.125 273.4375 Z M 296.875 273.4375 " fill-opacity="1" fill-rule="nonzero"/><path fill="#81d4fa" d="M 296.875 273.4375 L 78.125 273.4375 L 78.125 174.609375 C 81.640625 172.8125 85.625 171.875 89.84375 171.875 C 93.203125 171.875 96.484375 172.5 99.453125 173.671875 C 101.71875 174.53125 103.75 175.625 105.703125 177.03125 C 105.703125 177.03125 107.890625 179.296875 111.09375 182.1875 C 113.984375 174.0625 120.625 167.65625 128.90625 165.15625 C 131.40625 164.453125 133.984375 164.0625 136.71875 164.0625 C 145.9375 164.0625 154.0625 168.671875 158.984375 175.78125 C 162.734375 173.28125 167.109375 171.875 171.875 171.875 C 175.078125 171.875 178.046875 172.5 180.78125 173.671875 C 186.484375 167.734375 194.296875 164.0625 203.125 164.0625 C 213.984375 164.0625 223.515625 169.609375 229.0625 177.96875 C 233.75 174.140625 239.609375 171.875 246.09375 171.875 C 253.75 171.875 260.625 175 265.625 180.078125 C 266.875 179.921875 268.203125 179.6875 269.53125 179.6875 C 273.203125 179.6875 276.71875 180.46875 279.921875 181.71875 C 284.140625 176.71875 290.078125 173.125 296.875 172.1875 Z M 296.875 273.4375 " fill-opacity="1" fill-rule="nonzero"/><path fill="#66bb6a" d="M 296.875 273.4375 L 218.75 273.4375 L 264.765625 207.65625 C 268.984375 201.640625 277.890625 201.640625 282.109375 207.65625 L 296.875 228.75 Z M 296.875 273.4375 " fill-opacity="1" fill-rule="nonzero"/><path fill="#4caf50" d="M 268.75 273.4375 L 137.5 273.4375 L 194.453125 192.03125 C 198.671875 186.015625 207.578125 186.015625 211.796875 192.03125 Z M 268.75 273.4375 " fill-opacity="1" fill-rule="nonzero"/><path fill="#43a047" d="M 204.6875 273.4375 L 78.125 273.4375 L 78.125 204.21875 L 108.515625 160.78125 C 112.734375 154.765625 121.640625 154.765625 125.859375 160.78125 Z M 204.6875 273.4375 " fill-opacity="1" fill-rule="nonzero"/><path fill="#fff176" d="M 273.4375 140.625 C 273.4375 141.652344 273.335938 142.667969 273.136719 143.671875 C 272.9375 144.679688 272.640625 145.65625 272.25 146.605469 C 271.855469 147.550781 271.375 148.453125 270.804688 149.304688 C 270.234375 150.160156 269.585938 150.949219 268.859375 151.671875 C 268.136719 152.398438 267.347656 153.046875 266.492188 153.617188 C 265.640625 154.1875 264.738281 154.667969 263.792969 155.0625 C 262.84375 155.453125 261.867188 155.75 260.859375 155.949219 C 259.855469 156.148438 258.839844 156.25 257.8125 156.25 C 256.785156 156.25 255.769531 156.148438 254.765625 155.949219 C 253.757812 155.75 252.78125 155.453125 251.832031 155.0625 C 250.886719 154.667969 249.984375 154.1875 249.132812 153.617188 C 248.277344 153.046875 247.488281 152.398438 246.765625 151.671875 C 246.039062 150.949219 245.390625 150.160156 244.820312 149.304688 C 244.25 148.453125 243.769531 147.550781 243.375 146.605469 C 242.984375 145.65625 242.6875 144.679688 242.488281 143.671875 C 242.289062 142.667969 242.1875 141.652344 242.1875 140.625 C 242.1875 139.597656 242.289062 138.582031 242.488281 137.578125 C 242.6875 136.570312 242.984375 135.59375 243.375 134.644531 C 243.769531 133.699219 244.25 132.796875 244.820312 131.945312 C 245.390625 131.089844 246.039062 130.300781 246.765625 129.578125 C 247.488281 128.851562 248.277344 128.203125 249.132812 127.632812 C 249.984375 127.0625 250.886719 126.582031 251.832031 126.1875 C 252.78125 125.796875 253.757812 125.5 254.765625 125.300781 C 255.769531 125.101562 256.785156 125 257.8125 125 C 258.839844 125 259.855469 125.101562 260.859375 125.300781 C 261.867188 125.5 262.84375 125.796875 263.792969 126.1875 C 264.738281 126.582031 265.640625 127.0625 266.492188 127.632812 C 267.347656 128.203125 268.136719 128.851562 268.859375 129.578125 C 269.585938 130.300781 270.234375 131.089844 270.804688 131.945312 C 271.375 132.796875 271.855469 133.699219 272.25 134.644531 C 272.640625 135.59375 272.9375 136.570312 273.136719 137.578125 C 273.335938 138.582031 273.4375 139.597656 273.4375 140.625 Z M 273.4375 140.625 " fill-opacity="1" fill-rule="nonzero"/><path fill="#546e7a" d="M 312.5 70.3125 C 321.117188 70.3125 328.125 77.320312 328.125 85.9375 L 328.125 289.0625 C 328.125 297.679688 321.117188 304.6875 312.5 304.6875 L 62.5 304.6875 C 53.882812 304.6875 46.875 297.679688 46.875 289.0625 L 46.875 85.9375 C 46.875 77.320312 53.882812 70.3125 62.5 70.3125 L 312.5 70.3125 M 312.5 54.6875 L 62.5 54.6875 C 45.3125 54.6875 31.25 68.75 31.25 85.9375 L 31.25 289.0625 C 31.25 306.25 45.3125 320.3125 62.5 320.3125 L 312.5 320.3125 C 329.6875 320.3125 343.75 306.25 343.75 289.0625 L 343.75 85.9375 C 343.75 68.75 329.6875 54.6875 312.5 54.6875 Z M 312.5 54.6875 " fill-opacity="1" fill-rule="nonzero"/></svg>